<!--<svg class="botao-svg" version="1.1" id="Layer_1" xmlns="http://www.w3.org/2000/svg" xmlns:xlink="http://www.w3.org/1999/xlink" x="0" y="0" viewBox="0 0 179.999 200" xml:space="preserve">
  <g opacity=".5">
    <defs>
      <path id="SVGID_35_" opacity=".5" d="M-141.51 8.536c-45.776 0-82.886 37.109-82.886 82.886s37.109 82.886 82.886 82.886 82.886-37.109 82.886-82.886S-95.733 8.536-141.51 8.536zm0 158.392c-41.701 0-75.506-33.805-75.506-75.506 0-41.702 33.805-75.506 75.506-75.506s75.506 33.804 75.506 75.506c0 41.701-33.805 75.506-75.506 75.506z"/>
    </defs>
    <clipPath id="SVGID_1_">
      <use xlink:href="#SVGID_35_" overflow="visible"/>
    </clipPath>
    <g clip-path="url(#SVGID_1_)" fill="#FFF">
      <path d="M-178.623 194.858L11.217 5.018H7.053l-189.84 189.84zM-155.066 194.858L34.773 5.018h-4.164l-189.839 189.84zM-131.51 194.858L56.942 6.405V5.018h-2.775l-189.841 189.84zM-107.954 194.858L56.942 29.962v-4.164l-169.059 169.06zM-84.397 194.858L56.942 53.519v-4.165L-88.561 194.858zM-60.84 194.858L56.942 77.075v-4.163L-65.004 194.858zM-37.284 194.858l94.226-94.226v-4.164l-98.39 98.39zM-13.728 194.858l70.67-70.67v-4.164l-74.833 74.834zM9.829 194.858l47.113-47.113v-4.164L5.666 194.858zM33.386 194.858l23.556-23.556v-4.164l-27.72 27.72z"/>
    </g>
    <g clip-path="url(#SVGID_1_)" fill="#FFF">
      <path d="M-185.559 189.382L4.281-.458H.117l-189.84 189.84zM-162.002 189.382L27.837-.458h-4.163l-189.84 189.84zM-138.446 189.382L50.006.929V-.458H47.23l-189.84 189.84zM-114.89 189.382L50.006 24.485v-4.163l-169.059 169.06zM-91.333 189.382L50.006 48.043v-4.164L-95.497 189.382zM-67.776 189.382L50.006 71.599v-4.162L-71.94 189.382zM-44.22 189.382l94.226-94.227v-4.164l-98.39 98.391zM-20.664 189.382l70.67-70.67v-4.163l-74.833 74.833zM2.894 189.382l47.112-47.113v-4.164l-51.277 51.277zM26.45 189.382l23.556-23.557v-4.164l-27.72 27.721z"/>
    </g>
  </g>
  <path fill="#748B9E" d="M0 89.999C0 40.295 40.294 0 89.999 0c48.683 0 88.311 38.659 89.923 86.948h.076V180H91.906v-.048c-.635.012-1.266.048-1.907.048C40.294 180 0 139.705 0 89.999"/>
  <g id="XMLID_15_" fill="none" stroke="#FFF" stroke-width="5" stroke-linecap="round" stroke-miterlimit="10">
    <path id="XMLID_21_" d="M111.885 87.038v9.117c0 12.066-9.819 21.887-21.886 21.887-12.068 0-21.885-9.82-21.885-21.887v-9.117"/>
    <path id="XMLID_20_" d="M79.057 50.866a29.052 29.052 0 0110.942-2.129c3.869 0 7.564.758 10.946 2.133"/>
    <path id="XMLID_19_" d="M84.526 56.726a21.854 21.854 0 015.473-.693c1.888 0 3.721.241 5.472.693"/>
    <path id="XMLID_18_" d="M89.999 110.746h0c-8.059 0-14.59-6.53-14.59-14.591V77.918c0-8.059 6.531-14.59 14.59-14.59h0c8.058 0 14.59 6.531 14.59 14.59v18.237c0 8.061-6.532 14.591-14.59 14.591z"/>
    <path id="XMLID_17_" d="M89.999 118.042v14.59"/>
    <path id="XMLID_16_" d="M75.409 132.632h29.18"/>
  </g>
  <g opacity=".5">
    <path fill="#FFF" d="M81.023 20.478l-3.108-3.11L90 5.282l12.084 12.086-3.109 3.11L90 11.502zM90 174.718l-12.085-12.086 3.108-3.11L90 168.498l8.975-8.976 3.109 3.11zM162.63 102.085l-3.109-3.109L168.498 90l-8.977-8.976 3.109-3.109L174.716 90zM17.368 102.085L5.282 90l12.086-12.085 3.11 3.109L11.501 90l8.977 8.976z"/>
    <g>
      <path fill="#FFF" d="M90 151.478c-33.005 0-59.855-26.851-59.855-59.854 0-33.007 26.85-59.857 59.855-59.857 33.003 0 59.853 26.851 59.853 59.857.001 33.003-26.849 59.854-59.853 59.854zm0-114.676c-30.227 0-54.821 24.593-54.821 54.822 0 30.226 24.594 54.817 54.821 54.817s54.818-24.592 54.818-54.817c.001-30.229-24.59-54.822-54.818-54.822z"/>
    </g>
  </g>
  <g opacity=".5" fill="#FFF">
    <path d="M140.981 155.362c-.217.207-.509.311-.875.311h-.143c-.368 0-.659-.104-.876-.311-.217-.208-.325-.51-.325-.904v-2.574c0-.401.107-.703.322-.908.214-.205.507-.309.879-.309h.143c.372 0 .665.104.879.309.214.205.321.507.321.908v2.574c.001.395-.108.696-.325.904zm-.45-3.998a.595.595 0 00-.425-.16h-.143a.597.597 0 00-.426.16.512.512 0 00-.168.383v1.938l1.33-1.938a.515.515 0 00-.168-.383zm-.994 3.612c.112.107.254.16.426.16h.143a.59.59 0 00.425-.16.51.51 0 00.168-.383v-1.931l-1.33 1.931c0 .148.056.275.168.383zM143.702 155.136v-3.903l-1.008.372v-.58l.937-.357h.679v4.469h.779v.537h-2.324v-.537h.937zM148.704 155.362c-.217.207-.509.311-.876.311h-.143c-.367 0-.659-.104-.875-.311-.217-.208-.326-.51-.326-.904v-2.574c0-.401.107-.703.322-.908.214-.205.507-.309.879-.309h.143c.372 0 .665.104.879.309.215.205.322.507.322.908v2.574c0 .395-.109.696-.325.904zm-.451-3.998a.597.597 0 00-.426-.16h-.143a.595.595 0 00-.425.16.512.512 0 00-.168.383v1.938l1.331-1.938a.52.52 0 00-.169-.383zm-.994 3.612a.59.59 0 00.425.16h.143a.593.593 0 00.426-.16.51.51 0 00.168-.383v-1.931l-1.331 1.931a.518.518 0 00.169.383zM152.565 155.362c-.217.207-.509.311-.876.311h-.143c-.367 0-.659-.104-.876-.311-.217-.208-.325-.51-.325-.904v-2.574c0-.401.107-.703.322-.908.214-.205.508-.309.879-.309h.143c.372 0 .665.104.879.309.215.205.322.507.322.908v2.574c.001.395-.108.696-.325.904zm-.451-3.998a.595.595 0 00-.425-.16h-.143a.595.595 0 00-.425.16.512.512 0 00-.168.383v1.938l1.33-1.938a.513.513 0 00-.169-.383zm-.993 3.612a.59.59 0 00.425.16h.143a.59.59 0 00.425-.16.51.51 0 00.168-.383v-1.931l-1.33 1.931a.518.518 0 00.169.383zM155.286 155.136v-3.903l-1.008.372v-.58l.937-.357h.68v4.469h.779v.537h-2.324v-.537h.936zM160.287 155.362c-.217.207-.509.311-.876.311h-.143c-.367 0-.659-.104-.875-.311-.217-.208-.326-.51-.326-.904v-2.574c0-.401.107-.703.322-.908s.508-.309.879-.309h.143c.372 0 .665.104.879.309.215.205.322.507.322.908v2.574c0 .395-.108.696-.325.904zm-.45-3.998a.596.596 0 00-.426-.16h-.143a.593.593 0 00-.425.16.512.512 0 00-.168.383v1.938l1.33-1.938a.515.515 0 00-.168-.383zm-.994 3.612a.59.59 0 00.425.16h.143a.593.593 0 00.426-.16.51.51 0 00.168-.383v-1.931l-1.33 1.931a.51.51 0 00.168.383zM163.007 155.136v-3.903l-1.008.372v-.58l.937-.357h.679v4.469h.779v.537h-2.324v-.537h.937zM166.869 155.136v-3.903l-1.008.372v-.58l.937-.357h.679v4.469h.779v.537h-2.324v-.537h.937zM171.871 155.362c-.217.207-.509.311-.876.311h-.143c-.367 0-.659-.104-.876-.311-.217-.208-.325-.51-.325-.904v-2.574c0-.401.107-.703.322-.908.214-.205.508-.309.879-.309h.143c.372 0 .665.104.879.309.215.205.322.507.322.908v2.574c0 .395-.109.696-.325.904zm-.451-3.998a.595.595 0 00-.425-.16h-.143a.597.597 0 00-.426.16.512.512 0 00-.168.383v1.938l1.33-1.938a.515.515 0 00-.168-.383zm-.994 3.612c.112.107.254.16.426.16h.143c.171 0 .313-.053.425-.16s.168-.234.168-.383v-1.931l-1.33 1.931c0 .148.056.275.168.383zM174.591 155.136v-3.903l-1.008.372v-.58l.937-.357h.679v4.469h.779v.537h-2.324v-.537h.937zM139.841 163.717v-3.903l-1.008.371v-.579l.937-.356h.68v4.468h.779v.536h-2.324v-.536h.936zM144.843 163.942c-.217.207-.509.311-.875.311h-.143c-.368 0-.659-.104-.876-.311-.217-.207-.326-.509-.326-.904v-2.574c0-.4.107-.703.322-.908.214-.205.508-.307.88-.307h.143c.371 0 .665.102.879.307.215.205.322.508.322.908v2.574c-.001.396-.109.697-.326.904zm-.45-3.997a.596.596 0 00-.425-.161h-.143a.596.596 0 00-.426.161.51.51 0 00-.168.383v1.938l1.33-1.938a.517.517 0 00-.168-.383zm-.995 3.612c.112.106.254.16.426.16h.143a.595.595 0 00.425-.16.514.514 0 00.168-.384v-1.93l-1.33 1.93c0 .148.057.275.168.384zM148.704 163.942c-.217.207-.509.311-.876.311h-.143c-.367 0-.659-.104-.875-.311-.217-.207-.326-.509-.326-.904v-2.574c0-.4.107-.703.322-.908.214-.205.507-.307.879-.307h.143c.372 0 .665.102.879.307.215.205.322.508.322.908v2.574c0 .396-.109.697-.325.904zm-.451-3.997a.598.598 0 00-.426-.161h-.143a.596.596 0 00-.425.161.51.51 0 00-.168.383v1.938l1.331-1.938a.518.518 0 00-.169-.383zm-.994 3.612c.112.106.254.16.425.16h.143a.597.597 0 00.426-.16.514.514 0 00.168-.384v-1.93l-1.331 1.93a.522.522 0 00.169.384zM151.424 163.717v-3.903l-1.008.371v-.579l.937-.356h.679v4.468h.779v.536h-2.324v-.536h.937zM156.426 163.942c-.217.207-.509.311-.875.311h-.143c-.368 0-.659-.104-.876-.311-.217-.207-.326-.509-.326-.904v-2.574c0-.4.107-.703.322-.908.214-.205.507-.307.879-.307h.143c.372 0 .665.102.879.307.215.205.322.508.322.908v2.574c0 .396-.108.697-.325.904zm-.451-3.997a.594.594 0 00-.425-.161h-.143a.596.596 0 00-.426.161.51.51 0 00-.168.383v1.938l1.33-1.938a.51.51 0 00-.168-.383zm-.994 3.612c.112.106.254.16.426.16h.143a.595.595 0 00.425-.16.514.514 0 00.168-.384v-1.93l-1.33 1.93c0 .148.057.275.168.384zM159.147 163.717v-3.903l-1.009.371v-.579l.937-.356h.679v4.468h.779v.536h-2.324v-.536h.938zM164.148 163.942c-.217.207-.509.311-.876.311h-.143c-.367 0-.659-.104-.876-.311s-.325-.509-.325-.904v-2.574c0-.4.107-.703.322-.908.214-.205.507-.307.879-.307h.143c.372 0 .665.102.879.307.215.205.322.508.322.908v2.574c0 .396-.108.697-.325.904zm-.45-3.997a.596.596 0 00-.426-.161h-.143a.596.596 0 00-.425.161.51.51 0 00-.168.383v1.938l1.331-1.938a.518.518 0 00-.169-.383zm-.994 3.612c.112.106.254.16.425.16h.143a.597.597 0 00.426-.16.514.514 0 00.168-.384v-1.93l-1.331 1.93c0 .148.057.275.169.384zM168.009 163.942c-.217.207-.509.311-.876.311h-.143c-.367 0-.659-.104-.875-.311-.217-.207-.326-.509-.326-.904v-2.574c0-.4.107-.703.322-.908.214-.205.508-.307.879-.307h.143c.372 0 .665.102.879.307.215.205.322.508.322.908v2.574c0 .396-.108.697-.325.904zm-.45-3.997a.594.594 0 00-.425-.161h-.143a.596.596 0 00-.425.161.51.51 0 00-.168.383v1.938l1.33-1.938a.522.522 0 00-.169-.383zm-.994 3.612c.112.106.254.16.425.16h.143a.593.593 0 00.425-.16.514.514 0 00.168-.384v-1.93l-1.33 1.93c0 .148.057.275.169.384zM139.841 172.297v-3.903l-1.008.371v-.579l.937-.356h.68v4.468h.779v.536h-2.324v-.536h.936zM144.843 172.522c-.217.207-.509.311-.875.311h-.143c-.368 0-.659-.104-.876-.311-.217-.208-.326-.51-.326-.904v-2.574c0-.4.107-.703.322-.908.214-.205.508-.307.88-.307h.143c.371 0 .665.102.879.307.215.205.322.508.322.908v2.574c-.001.395-.109.696-.326.904zm-.45-3.997a.596.596 0 00-.425-.161h-.143c-.172 0-.314.055-.426.161s-.168.235-.168.383v1.937l1.33-1.937a.517.517 0 00-.168-.383zm-.995 3.611a.592.592 0 00.426.161h.143a.591.591 0 00.425-.161.51.51 0 00.168-.382v-1.931l-1.33 1.931c0 .147.057.274.168.382zM147.563 172.297v-3.903l-1.008.371v-.579l.937-.356h.679v4.468h.779v.536h-2.324v-.536h.937zM151.424 172.297v-3.903l-1.008.371v-.579l.937-.356h.679v4.468h.779v.536h-2.324v-.536h.937zM155.286 172.297v-3.903l-1.008.371v-.579l.937-.356h.68v4.468h.779v.536h-2.324v-.536h.936zM160.287 172.522c-.217.207-.509.311-.876.311h-.143c-.367 0-.659-.104-.875-.311-.217-.208-.326-.51-.326-.904v-2.574c0-.4.107-.703.322-.908s.508-.307.879-.307h.143c.372 0 .665.102.879.307.215.205.322.508.322.908v2.574c0 .395-.108.696-.325.904zm-.45-3.997a.596.596 0 00-.426-.161h-.143a.594.594 0 00-.425.161.51.51 0 00-.168.383v1.937l1.33-1.937a.514.514 0 00-.168-.383zm-.994 3.611a.59.59 0 00.425.161h.143a.594.594 0 00.426-.161.51.51 0 00.168-.382v-1.931l-1.33 1.931a.51.51 0 00.168.382zM164.148 172.522c-.217.207-.509.311-.876.311h-.143c-.367 0-.659-.104-.876-.311-.217-.208-.325-.51-.325-.904v-2.574c0-.4.107-.703.322-.908.214-.205.507-.307.879-.307h.143c.372 0 .665.102.879.307.215.205.322.508.322.908v2.574c0 .395-.108.696-.325.904zm-.45-3.997a.596.596 0 00-.426-.161h-.143c-.171 0-.313.055-.425.161s-.168.235-.168.383v1.937l1.331-1.937a.518.518 0 00-.169-.383zm-.994 3.611a.591.591 0 00.425.161h.143a.594.594 0 00.426-.161.51.51 0 00.168-.382v-1.931l-1.331 1.931c0 .147.057.274.169.382zM166.243 167.851h.983v4.986h-.983z"/>
  </g>
  <g opacity=".5" fill="#FFF">
    <circle cx="90" cy="22.713" r=".964"/>
    <circle cx="72.407" cy="25.028" r=".963"/>
    <circle cx="56.014" cy="31.819" r=".963"/>
    <circle cx="41.936" cy="42.621" r=".963"/>
    <circle cx="31.134" cy="56.699" r=".963"/>
    <circle cx="24.343" cy="73.092" r=".964"/>
    <circle cx="22.027" cy="90.686" r=".963"/>
    <circle cx="24.343" cy="108.277" r=".963"/>
    <circle cx="31.134" cy="124.671" r=".963"/>
    <circle cx="41.936" cy="138.749" r=".963"/>
    <circle cx="56.014" cy="149.55" r=".963"/>
    <circle cx="72.407" cy="156.341" r=".963"/>
    <circle cx="90" cy="158.657" r=".963"/>
    <circle cx="107.592" cy="156.341" r=".963"/>
    <circle cx="123.985" cy="149.55" r=".963"/>
    <circle cx="138.063" cy="138.749" r=".963"/>
    <circle cx="148.865" cy="124.671" r=".963"/>
    <circle cx="155.655" cy="108.277" r=".963"/>
    <circle cx="157.971" cy="90.686" r=".963"/>
    <circle cx="155.655" cy="73.092" r=".964"/>
    <circle cx="148.865" cy="56.699" r=".963"/>
    <circle cx="138.063" cy="42.621" r=".963"/>
    <circle cx="123.985" cy="31.819" r=".963"/>
    <circle cx="107.592" cy="25.028" r=".963"/>
  </g>
</svg>-->

<svg width="50" height="50" viewBox="0 0 50 50" fill="none" xmlns="http://www.w3.org/2000/svg">
<path d="M25 34.375C27.2101 34.375 29.3297 33.497 30.8925 31.9342C32.4553 30.3714 33.3333 28.2518 33.3333 26.0416V9.37496C33.3333 7.16482 32.4553 5.04521 30.8925 3.4824C29.3297 1.9196 27.2101 1.04163 25 1.04163C22.7899 1.04163 20.6702 1.9196 19.1074 3.4824C17.5446 5.04521 16.6667 7.16482 16.6667 9.37496V26.0416C16.6667 28.2518 17.5446 30.3714 19.1074 31.9342C20.6702 33.497 22.7899 34.375 25 34.375ZM20.8333 9.37496C20.8333 8.26989 21.2723 7.21008 22.0537 6.42868C22.8351 5.64728 23.8949 5.20829 25 5.20829C26.1051 5.20829 27.1649 5.64728 27.9463 6.42868C28.7277 7.21008 29.1667 8.26989 29.1667 9.37496V26.0416C29.1667 27.1467 28.7277 28.2065 27.9463 28.9879C27.1649 29.7693 26.1051 30.2083 25 30.2083C23.8949 30.2083 22.8351 29.7693 22.0537 28.9879C21.2723 28.2065 20.8333 27.1467 20.8333 26.0416V9.37496Z" fill="#FCBA5A" stroke="#6F2282"/>
<path d="M39.5833 26.0417C39.5833 25.4892 39.3638 24.9593 38.9731 24.5686C38.5824 24.1779 38.0525 23.9584 37.5 23.9584C36.9475 23.9584 36.4175 24.1779 36.0268 24.5686C35.6361 24.9593 35.4167 25.4892 35.4167 26.0417C35.4167 28.8044 34.3192 31.4539 32.3657 33.4074C30.4122 35.3609 27.7627 36.4584 25 36.4584C22.2373 36.4584 19.5878 35.3609 17.6343 33.4074C15.6808 31.4539 14.5833 28.8044 14.5833 26.0417C14.5833 25.4892 14.3638 24.9593 13.9731 24.5686C13.5824 24.1779 13.0525 23.9584 12.5 23.9584C11.9475 23.9584 11.4176 24.1779 11.0269 24.5686C10.6362 24.9593 10.4167 25.4892 10.4167 26.0417C10.4208 29.5456 11.6863 32.9308 13.9816 35.5781C16.277 38.2254 19.4487 39.9578 22.9167 40.4584V44.7917H21.875C21.3225 44.7917 20.7926 45.0112 20.4019 45.4019C20.0112 45.7926 19.7917 46.3225 19.7917 46.875C19.7917 47.4276 20.0112 47.9575 20.4019 48.3482C20.7926 48.7389 21.3225 48.9584 21.875 48.9584H28.125C28.6775 48.9584 29.2074 48.7389 29.5981 48.3482C29.9888 47.9575 30.2083 47.4276 30.2083 46.875C30.2083 46.3225 29.9888 45.7926 29.5981 45.4019C29.2074 45.0112 28.6775 44.7917 28.125 44.7917H27.0833V40.4584C30.5512 39.9578 33.723 38.2254 36.0184 35.5781C38.3137 32.9308 39.5792 29.5456 39.5833 26.0417Z" fill="#FCBA5A" stroke="#6F2282"/>
</svg>
