<svg width="56" height="54" viewBox="0 0 56 54" fill="none" xmlns="http://www.w3.org/2000/svg">
<path d="M21.8598 48.729L23.028 49.4299C23.9626 49.8972 25.1308 50.1308 26.2991 50.1308H42.4206C46.6262 50.1308 50.1308 47.0935 50.8318 43.1215L54.3364 24.8972C55.0374 21.6262 52.4673 18.8224 49.1963 18.8224H39.8505L43.8224 7.84112C44.0561 7.37383 44.0561 6.90654 44.0561 6.43925C44.0561 4.1028 42.1869 2 39.6168 2C38.2149 2 37.0467 2.70093 36.1121 3.63551L22.3271 21.8598H21.8598" stroke="#22823D" stroke-width="3" stroke-miterlimit="10" stroke-linecap="round" stroke-linejoin="round"/>
<path d="M19.2897 51.9996H4.33645C2.93458 51.9996 2 51.065 2 49.6631V20.4575C2 19.0557 2.93458 18.1211 4.33645 18.1211H19.5234C20.9252 18.1211 21.8598 19.0557 21.8598 20.4575V49.8968C21.6262 51.065 20.6916 51.9996 19.2897 51.9996Z" stroke="#22823D" stroke-width="3" stroke-miterlimit="10" stroke-linecap="round" stroke-linejoin="round"/>
</svg>
