<svg width="56" height="54" viewBox="0 0 56 54" fill="none" xmlns="http://www.w3.org/2000/svg">
<path d="M21.8598 5.27103L23.028 4.57009C23.9626 4.1028 25.1308 3.86916 26.2991 3.86916H42.4206C46.6262 3.86916 50.1308 6.90654 50.8318 10.8785L54.3364 29.1028C55.0374 32.3738 52.4673 35.1776 49.1963 35.1776H39.8505L43.8224 46.1589C44.0561 46.6262 44.0561 47.0935 44.0561 47.5607C44.0561 49.8972 42.1869 52 39.6168 52C38.2149 52 37.0467 51.2991 36.1121 50.3645L22.3271 32.1402H21.8598" stroke="#BB2323" stroke-width="3" stroke-miterlimit="10" stroke-linecap="round" stroke-linejoin="round"/>
<path d="M19.2897 2.0004H4.33645C2.93458 2.0004 2 2.93498 2 4.33685V33.5425C2 34.9443 2.93458 35.8789 4.33645 35.8789H19.5234C20.9252 35.8789 21.8598 34.9443 21.8598 33.5425V4.10321C21.6262 2.93498 20.6916 2.0004 19.2897 2.0004Z" stroke="#BB2323" stroke-width="3" stroke-miterlimit="10" stroke-linecap="round" stroke-linejoin="round"/>
</svg>
