<svg class="botao-svg" onclick="popup('URL')" version="1.1" id="Layer_1" xmlns="http://www.w3.org/2000/svg" x="0" y="0" viewBox="0 0 180 199.999" xml:space="preserve">
  <path fill="#748B9E" d="M89.999 179.999c-49.704 0-89.999-40.295-89.999-90C0 41.316 38.659 1.688 86.949.076V0H180v88.093h-.048c.012.636.048 1.267.048 1.906 0 49.705-40.295 90-90.001 90"/>
  <path fill="#FFF" d="M66.61 131.695a9.311 9.311 0 01-6.623-2.744l-8.656-8.657c-3.651-3.651-3.652-9.596 0-13.247L68.64 89.735c3.654-3.648 9.597-3.648 13.25-.001a1.72 1.72 0 11-2.431 2.433 5.943 5.943 0 00-8.388 0l-17.308 17.311a5.937 5.937 0 000 8.386l8.655 8.656a5.89 5.89 0 004.191 1.737h.001a5.89 5.89 0 004.194-1.737l17.306-17.312c2.308-2.311 2.308-6.072-.001-8.387a1.72 1.72 0 012.435-2.429c3.645 3.653 3.645 9.597-.001 13.246L73.237 128.95a9.305 9.305 0 01-6.625 2.745h-.002zM104.433 93.87a9.303 9.303 0 01-6.626-2.749 1.719 1.719 0 112.435-2.429c1.119 1.121 2.607 1.739 4.191 1.739s3.072-.618 4.191-1.739l17.31-17.303a5.896 5.896 0 001.738-4.193 5.893 5.893 0 00-1.737-4.193l-8.655-8.655a5.889 5.889 0 00-4.192-1.737 5.893 5.893 0 00-4.193 1.737l-17.307 17.31a5.888 5.888 0 00-1.739 4.192 5.89 5.89 0 001.738 4.191 1.72 1.72 0 01-2.431 2.431 9.303 9.303 0 01-2.745-6.622c0-2.502.975-4.854 2.745-6.624l17.307-17.31a9.3 9.3 0 016.625-2.744c2.503 0 4.856.974 6.625 2.745l8.655 8.655a9.31 9.31 0 012.743 6.625 9.31 9.31 0 01-2.746 6.624l-17.309 17.301a9.29 9.29 0 01-6.623 2.748z"/>
  <path fill="#FFF" d="M74.375 107.626a1.718 1.718 0 01-1.215-2.935l30.946-30.945a1.72 1.72 0 012.431 2.431l-30.946 30.945a1.714 1.714 0 01-1.216.504z"/>
  <g opacity=".5">
    <path fill="#FFF" d="M90.167 170.521h-.168c-2.035 0-4.098-.078-6.131-.23l.557-7.452c1.851.138 3.724.209 5.574.209h.168v7.473zm6.316-.258l-.593-7.45a72.88 72.88 0 005.69-.679l1.177 7.381c-2.074.33-4.185.582-6.274.748zm-18.896-.696a82.035 82.035 0 01-6.198-1.209l1.714-7.275c1.863.438 3.757.811 5.628 1.1l-1.144 7.384zm31.368-1.291l-1.754-7.264a72.856 72.856 0 005.512-1.564l2.324 7.103a80.13 80.13 0 01-6.082 1.725zm-43.658-1.617a79.75 79.75 0 01-5.941-2.177l2.847-6.91a72.203 72.203 0 005.386 1.972l-2.292 7.115zm55.659-2.306l-2.875-6.898a72.873 72.873 0 005.193-2.41l3.413 6.65a80.558 80.558 0 01-5.731 2.658zm-67.348-2.506a81.373 81.373 0 01-5.521-3.082l3.894-6.379a73.003 73.003 0 005.01 2.795l-3.383 6.666zm78.583-3.252l-3.927-6.359a74.339 74.339 0 004.761-3.199l4.406 6.037a82.884 82.884 0 01-5.24 3.521zm-89.366-3.333a81.527 81.527 0 01-4.971-3.905l4.84-5.693a74.462 74.462 0 004.512 3.543l-4.381 6.055zm99.56-4.111l-4.864-5.673a73.946 73.946 0 004.206-3.901l5.29 5.279a80.825 80.825 0 01-4.632 4.295zm-109.18-4.074a81.046 81.046 0 01-4.301-4.627l5.669-4.87a73.734 73.734 0 003.905 4.199l-5.273 5.298zm118.095-4.868l-5.69-4.847a73.476 73.476 0 003.549-4.508l6.049 4.389a81.394 81.394 0 01-3.908 4.966zm-126.322-4.707a81.423 81.423 0 01-3.528-5.239l6.359-3.93c1 1.621 2.078 3.221 3.201 4.758l-6.032 4.411zm133.74-5.515l-6.374-3.901a74.002 74.002 0 002.8-5.007l6.662 3.391a81.993 81.993 0 01-3.088 5.517zm-140.374-5.224a80.802 80.802 0 01-2.664-5.727l6.896-2.881a72.694 72.694 0 002.416 5.191l-6.648 3.417zm146.106-6.042l-6.908-2.853a72.283 72.283 0 001.978-5.382l7.112 2.297a80.585 80.585 0 01-2.182 5.938zm-150.974-5.602c-.656-2-1.238-4.046-1.731-6.079l7.264-1.762a72.112 72.112 0 001.57 5.51l-7.103 2.331zm154.86-6.421l-7.27-1.73c.44-1.85.812-3.741 1.104-5.623l7.387 1.15a80.813 80.813 0 01-1.221 6.203zM10.5 102.843a81.76 81.76 0 01-.755-6.271l7.45-.604c.153 1.901.384 3.817.685 5.692l-7.38 1.183zm159.781-6.621l-7.451-.572c.142-1.86.215-3.762.215-5.65l.004-.191 7.471.107-.001.084a80.881 80.881 0 01-.238 6.222zM16.954 90.25H9.48l-.001-.187c0-2.084.074-4.119.223-6.113l7.453.555a74.79 74.79 0 00-.203 5.494l.002.251zm145.864-6.062a73.671 73.671 0 00-.673-5.694l7.383-1.165c.325 2.066.576 4.177.74 6.271l-7.45.588zM17.804 78.809l-7.386-1.135a80.023 80.023 0 011.205-6.205l7.275 1.715a71.597 71.597 0 00-1.094 5.625zm143.226-5.934a73.136 73.136 0 00-1.558-5.515l7.106-2.313a80.257 80.257 0 011.718 6.082l-7.266 1.746zm-140.602-5.21l-7.115-2.287a80.457 80.457 0 012.17-5.942l6.914 2.842a72.775 72.775 0 00-1.969 5.387zm137.058-5.672a72.9 72.9 0 00-2.406-5.2l6.656-3.4a82.134 82.134 0 012.65 5.729l-6.9 2.871zM24.781 57.06l-6.668-3.373a79.565 79.565 0 013.077-5.528l6.379 3.894a72.41 72.41 0 00-2.788 5.007zm127.492-5.261a73.426 73.426 0 00-3.19-4.762l6.04-4.4a81.057 81.057 0 013.518 5.247l-6.368 3.915zM30.746 47.271l-6.058-4.376a81.065 81.065 0 013.897-4.974l5.699 4.834a74.457 74.457 0 00-3.538 4.516zM145.53 42.54a73.962 73.962 0 00-3.896-4.211l5.285-5.285a83.274 83.274 0 014.289 4.635l-5.678 4.861zM38.161 38.534l-5.302-5.267a81.214 81.214 0 014.622-4.306l4.878 5.662a75.51 75.51 0 00-4.198 3.911zm99.263-4.096a74.403 74.403 0 00-4.505-3.554l4.398-6.044a82.149 82.149 0 014.959 3.912l-4.852 5.686zm-90.577-3.382l-4.42-6.027a80.692 80.692 0 015.238-3.533l3.932 6.354a73.149 73.149 0 00-4.75 3.206zm81.306-3.361a73.194 73.194 0 00-5.002-2.806l3.396-6.657a80.234 80.234 0 015.517 3.093l-3.911 6.37zm-71.57-2.669l-3.424-6.643a79.329 79.329 0 015.725-2.671l2.887 6.894a73.324 73.324 0 00-5.188 2.42zm61.361-2.538a73.208 73.208 0 00-5.384-1.985l2.307-7.108a79.719 79.719 0 015.936 2.188l-2.859 6.905zm-50.808-1.887l-2.338-7.1a80.746 80.746 0 016.077-1.737l1.772 7.261c-1.856.452-3.71.983-5.511 1.576zm39.913-1.649a73.134 73.134 0 00-5.624-1.111l1.159-7.385a80.85 80.85 0 016.2 1.226l-1.735 7.27zm-28.789-1.06l-1.192-7.379c2.068-.334 4.18-.59 6.275-.762l.606 7.448a73.225 73.225 0 00-5.689.693zm17.47-.718a74.514 74.514 0 00-5.731-.221h-.308l-.049-7.474.357-.001c2.098 0 4.22.081 6.309.243l-.578 7.453z"/>
    <path fill="#FFF" d="M89.999 170.521C45.6 170.521 9.479 134.4 9.479 90h7.474c0 40.277 32.768 73.048 73.046 73.048v7.473z"/>
  </g>
  <g opacity=".5">
    <path fill="#FFF" d="M89.335 146.704c31.932 0 57.991-25.979 58.087-57.906l3.017.008c-.103 33.588-27.514 60.914-61.104 60.914h-.124l.124-3.016zm-61.103-58.15c.036-33.658 27.446-61.041 61.09-61.041l.259-.001v3.016l-.247.001c-31.996 0-58.055 26.031-58.087 58.028l-3.015-.003z"/>
  </g>
  <g opacity=".5" fill="#FFF">
    <circle cx="172.156" cy="52.116" r=".872"/>
    <circle cx="166.011" cy="37.281" r=".871"/>
    <circle cx="156.236" cy="24.541" r=".871"/>
    <circle cx="143.497" cy="14.766" r=".872"/>
    <circle cx="128.661" cy="8.62" r=".871"/>
  </g>
</svg>
