<svg width="50" height="50" viewBox="0 0 50 50" fill="none" xmlns="http://www.w3.org/2000/svg">
<path d="M9.37491 46.875H7.8125C8.60739 46.875 9.08635 46.875 9.37495 46.875L9.37491 46.875ZM9.37653 46.875C9.8125 46.8749 9.8125 46.8748 9.8125 46.8747C9.8125 46.8748 9.8125 46.8749 9.8125 46.875H9.37651L9.37653 46.875ZM9.8125 45.8184V45.793V45.7596V45.7257V45.6913V45.6564V45.6211V45.5854V45.5491V45.5124V45.4753V45.4376V45.3996V45.361V45.3221V45.2826V45.2428V45.2025V45.1617V45.1205V45.0788V45.0368V44.9942V44.9513V44.9079V44.864V44.8198V44.7751V44.73V44.6844V44.6385V44.5921V44.5453V44.498V44.4504V44.4023V44.3539V44.305V44.2557V44.206V44.1559V44.1053V44.0544V44.0031V43.9514V43.8993V43.8467V43.7938V43.7405V43.6868V43.6327V43.5783V43.5234V43.4682V43.4126V43.3566V43.3002V43.2434V43.1863V43.1288V43.0709V43.0126V42.954V42.895V42.8357V42.7759V42.7159V42.6554V42.5946V42.5335V42.472V42.4101V42.3479V42.2853V42.2224V42.1592V42.0956V42.0316V41.9673V41.9027V41.8378V41.7725V41.7068V41.6409V41.5746V41.508V41.441V41.3737V41.3061V41.2382V41.17V41.1014V41.0325V40.9633V40.8938V40.824V40.7539V40.6835V40.6127V40.5417V40.4703V40.3987V40.3267V40.2545V40.182V40.1091V40.036V39.9626V39.8889V39.8149V39.7406V39.666V39.5912V39.5161V39.4407V39.365V39.289V39.2128V39.1363V39.0595V38.9825V38.9052V38.8276V38.7498V38.6717V38.5933V38.5147V38.4358V38.3567V38.2773V38.1977V38.1178V38.0377V37.9574V37.8767V37.7959V37.7148V37.6335V37.5519V37.4701V37.388V37.3058V37.2233V37.1405V37.0576V36.9744V36.891V36.8074V36.7235V36.6395V36.5552V36.4707V36.386V36.301V36.2159V36.1306V36.045V35.9593V35.8733V35.7872V35.7008V35.6143V35.5276V35.4406V35.3535V35.2662V35.1787V35.091V35.0031V34.915V34.8268V34.7384V34.6498V34.561V34.472V34.3829V34.2936V34.2042V34.1145V34.0247V33.9348V33.8446V33.7543V33.6639V33.5733V33.4825V33.3916V33.3006V33.2093V33.118V33.0265V32.9348V32.843V32.7511V32.659V32.5668V32.4744V32.3819V32.2893V32.1965V32.1036V32.0106V31.9175V31.8242V31.7308V31.6373V31.5437V31.4499V31.3561V31.2621V31.168V31.0738V30.9795V30.8851V30.7906V30.6959V30.6012V30.5064V30.4115V30.3164V30.2213V30.1261V30.0308V29.9354V29.8399V29.7444V29.6487V29.553V29.4572V29.3613V29.2653V29.1692V29.0731V28.9769V28.8807V28.7843V28.6879V28.5915V28.4949V28.3983V28.3017V28.205V28.1082V28.0114V27.9145V27.8175V27.7206V27.6235V27.5265V27.4293V27.3322V27.235V27.1377V27.0404V26.9431V26.8458V26.7484V26.6509V26.5535V26.456V26.3585V26.261V26.1634V26.0659V25.9683V25.8707V25.7731V25.6754V25.5778V25.4801V25.3825V25.2848V25.1871V25.0894V24.9918V24.8941V24.7964V24.6987V24.601V24.5034V24.4057V24.3081V24.2105V24.1128V24.0152V23.9177V23.8201V23.7225V23.625V23.5275V23.43V23.3326V23.2352V23.1378V23.0405V22.9431V22.8459V22.7486V22.6514V22.5543V22.4572V22.3601V22.2631V22.1661V22.0692V21.9723V21.8755V21.7787V21.682V21.5854V21.4888V21.3922V21.2958V21.1994V21.1031V21.0068V20.9106V20.8145V20.7185V20.6225V20.5266V20.4308V20.3351V20.2395V20.1439V20.0484V19.9531V19.8578V19.7626V19.6675V19.5725V19.4776V19.3827V19.288V19.1934V19.0989V19.0045V18.9102V18.8161V18.722V18.628V18.5342V18.4405V18.3468V18.2533V18.16V18.0667V17.9736V17.8806V17.7878V17.695V17.6024V17.5099V17.4176V17.3254V17.2333V17.1414V17.0496V16.958V16.8665V16.7752V16.684V16.5929V16.502V16.4113V16.3207V16.2303V16.1401V16.0499V15.96V15.8702V15.7806V15.6912V15.6019V15.5128V15.4239V15.3351V15.2466V15.1582V15.07V14.9819V14.8941V14.8064V14.7189V14.6317V14.5446V14.4577V14.3709V14.2844V14.1981V14.112V14.0261V13.9404V13.8549V13.7696V13.6845V13.5996V13.5149V13.4304V13.3462V13.2622V13.1783V13.0948V13.0114V12.9282V12.8453V12.7626V12.6802V12.5979V12.5159V12.4341V12.3526V12.2713V12.1903V12.1094V12.0289V11.9485V11.8685V11.7886V11.709V11.6297V11.5506V11.4718V11.3932V11.3149V11.2368V11.159V11.0815V11.0043V10.9273V10.8505V10.7741V10.6979V10.622V10.5463V10.471V10.3959V10.3211V10.2466V10.1723V10.0984V10.0247V9.95135V9.87827V9.80549V9.73299V9.66079V9.58889V9.51729V9.446V9.375C9.8125 7.83408 10.4249 6.35518 11.5141 5.2643C12.605 4.17492 14.084 3.5625 15.625 3.5625H15.6569H15.6889H15.721H15.7531H15.7853H15.8175H15.8497H15.8821H15.9144H15.9469H15.9794H16.0119H16.0445H16.0771H16.1098H16.1426H16.1754H16.2082H16.2411H16.274H16.307H16.3401H16.3732H16.4064H16.4396H16.4728H16.5061H16.5395H16.5729H16.6063H16.6398H16.6733H16.7069H16.7406H16.7743H16.808H16.8418H16.8756H16.9095H16.9434H16.9774H17.0114H17.0455H17.0796H17.1138H17.148H17.1822H17.2165H17.2508H17.2852H17.3196H17.3541H17.3886H17.4232H17.4578H17.4924H17.5271H17.5618H17.5966H17.6314H17.6663H17.7012H17.7361H17.7711H17.8061H17.8412H17.8763H17.9114H17.9466H17.9819H18.0171H18.0524H18.0878H18.1232H18.1586H18.1941H18.2296H18.2651H18.3007H18.3363H18.372H18.4077H18.4434H18.4792H18.515H18.5508H18.5867H18.6226H18.6586H18.6945H18.7306H18.7666H18.8027H18.8389H18.875H18.9112H18.9475H18.9837H19.02H19.0564H19.0927H19.1291H19.1656H19.202H19.2385H19.2751H19.3116H19.3482H19.3849H19.4215H19.4582H19.4949H19.5317H19.5685H19.6053H19.6422H19.679H19.7159H19.7529H19.7898H19.8268H19.8639H19.9009H19.938H19.9751H20.0123H20.0494H20.0866H20.1238H20.1611H20.1984H20.2357H20.273H20.3104H20.3477H20.3852H20.4226H20.4601H20.4975H20.5351H20.5726H20.6102H20.6477H20.6854H20.723H20.7606H20.7983H20.836H20.8738H20.9115H20.9493H20.9871H21.0249H21.0628H21.1006H21.1385H21.1764H21.2143H21.2523H21.2903H21.3283H21.3663H21.4043H21.4423H21.4804H21.5185H21.5566H21.5948H21.6329H21.6711H21.7093H21.7475H21.7857H21.8239H21.8622H21.9005H21.9388H21.9771H22.0154H22.0537H22.0921H22.1305H22.1689H22.2073H22.2457H22.2841H22.3226H22.3611H22.3995H22.438H22.4766H22.5151H22.5536H22.5922H22.6307H22.6693H22.7079H22.7465H22.7851H22.8238H22.8624H22.9011H22.9397H22.9784H23.0171H23.0558H23.0945H23.1332H23.1719H23.2107H23.2494H23.2882H23.327H23.3658H23.4045H23.4433H23.4821H23.521H23.5598H23.5986H23.6374H23.6763H23.7151H23.754H23.7929H23.8317H23.8706H23.9095H23.9484H23.9873H24.0262H24.0651H24.104H24.143H24.1819H24.2208H24.2597H24.2987H24.3376H24.3766H24.4155H24.4545H24.4934H24.5324H24.5713H24.6103H24.6493H24.6882H24.7272H24.7662H24.8051H24.8441H24.8831H24.9221H24.961H25H25.039H25.0779H25.1169H25.1559H25.1949H25.2338H25.2728H25.3118H25.3507H25.3897H25.4287H25.4676H25.5066H25.5455H25.5845H25.6234H25.6624H25.7013H25.7403H25.7792H25.8181H25.857H25.896H25.9349H25.9738H26.0127H26.0516H26.0905H26.1294H26.1683H26.2071H26.246H26.2849H26.3237H26.3626H26.4014H26.4402H26.479H26.5179H26.5567H26.5955H26.6342H26.673H26.7118H26.7506H26.7893H26.8281H26.8668H26.9055H26.9442H26.9829H27.0216H27.0603H27.0989H27.1376H27.1762H27.2149H27.2535H27.2921H27.3307H27.3693H27.4078H27.4464H27.4849H27.5235H27.562H27.6005H27.6389H27.6774H27.7159H27.7543H27.7927H27.8311H27.8695H27.9079H27.9463H27.9846H28.0229H28.0612H28.0995H28.1378H28.1761H28.2143H28.2525H28.2907H28.3289H28.3671H28.4052H28.4434H28.4815H28.5196H28.5577H28.5957H28.6337H28.6717H28.7097H28.7477H28.7857H28.8236H28.8615H28.8994H28.9372H28.9751H29.0129H29.0507H29.0885H29.1262H29.164H29.2017H29.2394H29.277H29.3146H29.3523H29.3898H29.4274H29.4649H29.5025H29.5399H29.5774H29.6148H29.6523H29.6896H29.727H29.7643H29.8016H29.8389H29.8762H29.9134H29.9506H29.9877H30.0249H30.062H30.0991H30.1361H30.1732H30.2102H30.2471H30.2841H30.321H30.3578H30.3947H30.4315H30.4683H30.5051H30.5418H30.5785H30.6151H30.6518H30.6884H30.7249H30.7615H30.798H30.8344H30.8709H30.9073H30.9436H30.98H31.0163H31.0525H31.0888H31.125H31.1611H31.1973H31.2334H31.2694H31.3055H31.3414H31.3774H31.4133H31.4492H31.485H31.5208H31.5566H31.5923H31.628H31.6637H31.6993H31.7349H31.7704H31.8059H31.8414H31.8768H31.9122H31.9476H31.9829H32.0181H32.0534H32.0886H32.1237H32.1588H32.1939H32.2289H32.2639H32.2988H32.3337H32.3686H32.4034H32.4382H32.4729H32.5076H32.5422H32.5768H32.6114H32.6459H32.6804H32.7148H32.7492H32.7835H32.8178H32.852H32.8862H32.9204H32.9545H32.9886H33.0226H33.0566H33.0905H33.1244H33.1582H33.192H33.2257H33.2594H33.2931H33.3267H33.3602H33.3937H33.4271H33.4605H33.4939H33.5272H33.5604H33.5936H33.6268H33.6599H33.693H33.726H33.7589H33.7918H33.8246H33.8574H33.8902H33.9229H33.9555H33.9881H34.0206H34.0531H34.0856H34.1179H34.1503H34.1825H34.2147H34.2469H34.279H34.3111H34.3431H34.375C35.9157 3.5625 37.3944 4.1747 38.4853 5.26372C39.5749 6.35465 40.1875 7.8338 40.1875 9.375V45.8184L26.4142 32.0452L25 30.6309L23.5858 32.0452L9.8125 45.8184Z" stroke="#6F2282" stroke-width="4"/>
</svg>
